{
    "asset" : {
        "generator" : "Khronos glTF Blender I/O v1.2.75",
        "version" : "2.0"
    },
    "scene" : 0,
    "scenes" : [
        {
            "name" : "Scene",
            "nodes" : [
                0
            ]
        }
    ],
    "nodes" : [
        {
            "mesh" : 0,
            "name" : "Cube.005"
        }
    ],
    "materials" : [
        {
            "doubleSided" : true,
            "emissiveFactor" : [
                0,
                0,
                0
            ],
            "name" : "Base",
            "occlusionTexture" : {
                "index" : 0,
                "texCoord" : 0
            },
            "pbrMetallicRoughness" : {
                "baseColorFactor" : [
                    0.800000011920929,
                    0.800000011920929,
                    0.800000011920929,
                    1
                ],
                "metallicFactor" : 0,
                "roughnessFactor" : 0.5
            }
        },
        {
            "doubleSided" : true,
            "emissiveFactor" : [
                0,
                0,
                0
            ],
            "name" : "Ground",
            "occlusionTexture" : {
                "index" : 1,
                "texCoord" : 0
            },
            "pbrMetallicRoughness" : {
                "baseColorFactor" : [
                    0.03741001337766647,
                    0.01923772320151329,
                    0.01198473572731018,
                    1
                ],
                "metallicFactor" : 0,
                "roughnessFactor" : 0.2799999713897705
            }
        },
        {
            "doubleSided" : true,
            "emissiveFactor" : [
                0,
                0,
                0
            ],
            "name" : "Material.001",
            "occlusionTexture" : {
                "index" : 2,
                "texCoord" : 0
            },
            "pbrMetallicRoughness" : {
                "baseColorFactor" : [
                    0.8000000715255737,
                    0.3885478079319,
                    0.04484109953045845,
                    1
                ],
                "metallicFactor" : 1,
                "roughnessFactor" : 0.17500001192092896
            }
        },
        {
            "doubleSided" : true,
            "emissiveFactor" : [
                0,
                0,
                0
            ],
            "name" : "Material.002",
            "occlusionTexture" : {
                "index" : 3,
                "texCoord" : 0
            },
            "pbrMetallicRoughness" : {
                "baseColorFactor" : [
                    0.35884055495262146,
                    0.35884055495262146,
                    0.35884055495262146,
                    1
                ],
                "metallicFactor" : 0,
                "roughnessFactor" : 0.4000000059604645
            }
        },
        {
            "doubleSided" : true,
            "emissiveFactor" : [
                0,
                0,
                0
            ],
            "name" : "Material.003",
            "occlusionTexture" : {
                "index" : 4,
                "texCoord" : 0
            },
            "pbrMetallicRoughness" : {
                "baseColorFactor" : [
                    0.4969233274459839,
                    0.4969233274459839,
                    0.4969233274459839,
                    1
                ],
                "metallicFactor" : 0,
                "roughnessFactor" : 0.5
            }
        },
        {
            "doubleSided" : true,
            "emissiveFactor" : [
                0,
                0,
                0
            ],
            "name" : "Material.004",
            "occlusionTexture" : {
                "index" : 5,
                "texCoord" : 0
            },
            "pbrMetallicRoughness" : {
                "baseColorFactor" : [
                    0.800000011920929,
                    0.800000011920929,
                    0.800000011920929,
                    1
                ],
                "metallicFactor" : 0,
                "roughnessFactor" : 0.5
            }
        },
        {
            "doubleSided" : true,
            "emissiveFactor" : [
                0,
                0,
                0
            ],
            "name" : "wood",
            "occlusionTexture" : {
                "index" : 6,
                "texCoord" : 0
            },
            "pbrMetallicRoughness" : {
                "baseColorFactor" : [
                    0.12823790311813354,
                    0.035005223006010056,
                    0.019694320857524872,
                    1
                ],
                "metallicFactor" : 0,
                "roughnessFactor" : 0.25833332538604736
            }
        },
        {
            "doubleSided" : true,
            "emissiveFactor" : [
                0,
                0,
                0
            ],
            "name" : "Pen",
            "occlusionTexture" : {
                "index" : 7,
                "texCoord" : 0
            },
            "pbrMetallicRoughness" : {
                "baseColorFactor" : [
                    0.010093387216329575,
                    0.16842323541641235,
                    0.4385440945625305,
                    1
                ],
                "metallicFactor" : 0,
                "roughnessFactor" : 0.5
            }
        },
        {
            "doubleSided" : true,
            "emissiveFactor" : [
                0,
                0,
                0
            ],
            "name" : "Rubber",
            "occlusionTexture" : {
                "index" : 8,
                "texCoord" : 0
            },
            "pbrMetallicRoughness" : {
                "baseColorFactor" : [
                    0.039679642766714096,
                    0.039679642766714096,
                    0.039679642766714096,
                    1
                ],
                "metallicFactor" : 0,
                "roughnessFactor" : 0.5
            }
        },
        {
            "doubleSided" : true,
            "emissiveFactor" : [
                0,
                0,
                0
            ],
            "name" : "Chrome",
            "occlusionTexture" : {
                "index" : 9,
                "texCoord" : 0
            },
            "pbrMetallicRoughness" : {
                "baseColorFactor" : [
                    0.800000011920929,
                    0.800000011920929,
                    0.800000011920929,
                    1
                ],
                "metallicFactor" : 0.7416666746139526,
                "roughnessFactor" : 0.21666666865348816
            }
        }
    ],
    "meshes" : [
        {
            "name" : "Cube.016",
            "primitives" : [
                {
                    "attributes" : {
                        "POSITION" : 0,
                        "NORMAL" : 1,
                        "TEXCOORD_0" : 2
                    },
                    "indices" : 3,
                    "material" : 0
                },
                {
                    "attributes" : {
                        "POSITION" : 4,
                        "NORMAL" : 5,
                        "TEXCOORD_0" : 6
                    },
                    "indices" : 7,
                    "material" : 1
                },
                {
                    "attributes" : {
                        "POSITION" : 8,
                        "NORMAL" : 9,
                        "TEXCOORD_0" : 10
                    },
                    "indices" : 11,
                    "material" : 2
                },
                {
                    "attributes" : {
                        "POSITION" : 12,
                        "NORMAL" : 13,
                        "TEXCOORD_0" : 14
                    },
                    "indices" : 15,
                    "material" : 3
                },
                {
                    "attributes" : {
                        "POSITION" : 16,
                        "NORMAL" : 17,
                        "TEXCOORD_0" : 18
                    },
                    "indices" : 15,
                    "material" : 4
                },
                {
                    "attributes" : {
                        "POSITION" : 19,
                        "NORMAL" : 20,
                        "TEXCOORD_0" : 21
                    },
                    "indices" : 15,
                    "material" : 5
                },
                {
                    "attributes" : {
                        "POSITION" : 22,
                        "NORMAL" : 23,
                        "TEXCOORD_0" : 24
                    },
                    "indices" : 25,
                    "material" : 6
                },
                {
                    "attributes" : {
                        "POSITION" : 26,
                        "NORMAL" : 27,
                        "TEXCOORD_0" : 28
                    },
                    "indices" : 29,
                    "material" : 7
                },
                {
                    "attributes" : {
                        "POSITION" : 30,
                        "NORMAL" : 31,
                        "TEXCOORD_0" : 32
                    },
                    "indices" : 33,
                    "material" : 8
                },
                {
                    "attributes" : {
                        "POSITION" : 34,
                        "NORMAL" : 35,
                        "TEXCOORD_0" : 36
                    },
                    "indices" : 37,
                    "material" : 9
                }
            ]
        }
    ],
    "textures" : [
        {
            "source" : 0
        },
        {
            "source" : 0
        },
        {
            "source" : 0
        },
        {
            "source" : 0
        },
        {
            "source" : 0
        },
        {
            "source" : 0
        },
        {
            "source" : 0
        },
        {
            "source" : 0
        },
        {
            "source" : 0
        },
        {
            "source" : 0
        }
    ],
    "images" : [
        {
            "bufferView" : 4,
            "mimeType" : "image/jpeg",
            "name" : "AO"
        }
    ],
    "accessors" : [
        {
            "bufferView" : 0,
            "componentType" : 5126,
            "count" : 884,
            "max" : [
                3.0035459995269775,
                0.30138084292411804,
                3.0035459995269775
            ],
            "min" : [
                -3.0035459995269775,
                0.006430263165384531,
                -3.0035459995269775
            ],
            "type" : "VEC3"
        },
        {
            "bufferView" : 1,
            "componentType" : 5126,
            "count" : 884,
            "type" : "VEC3"
        },
        {
            "bufferView" : 2,
            "componentType" : 5126,
            "count" : 884,
            "type" : "VEC2"
        },
        {
            "bufferView" : 3,
            "componentType" : 5123,
            "count" : 1254,
            "type" : "SCALAR"
        },
        {
            "bufferView" : 5,
            "componentType" : 5126,
            "count" : 84,
            "max" : [
                2.7158100605010986,
                0.18277597427368164,
                2.7158100605010986
            ],
            "min" : [
                -2.7158100605010986,
                0.18277597427368164,
                -2.7158100605010986
            ],
            "type" : "VEC3"
        },
        {
            "bufferView" : 6,
            "componentType" : 5126,
            "count" : 84,
            "type" : "VEC3"
        },
        {
            "bufferView" : 7,
            "componentType" : 5126,
            "count" : 84,
            "type" : "VEC2"
        },
        {
            "bufferView" : 8,
            "componentType" : 5123,
            "count" : 174,
            "type" : "SCALAR"
        },
        {
            "bufferView" : 9,
            "componentType" : 5126,
            "count" : 6152,
            "max" : [
                1.5316710472106934,
                3.6714558601379395,
                0.47470623254776
            ],
            "min" : [
                -3.0040643215179443,
                0.16121582686901093,
                -3.07289981842041
            ],
            "type" : "VEC3"
        },
        {
            "bufferView" : 10,
            "componentType" : 5126,
            "count" : 6152,
            "type" : "VEC3"
        },
        {
            "bufferView" : 11,
            "componentType" : 5126,
            "count" : 6152,
            "type" : "VEC2"
        },
        {
            "bufferView" : 12,
            "componentType" : 5123,
            "count" : 8736,
            "type" : "SCALAR"
        },
        {
            "bufferView" : 13,
            "componentType" : 5126,
            "count" : 6,
            "max" : [
                0.733092725276947,
                0.18806752562522888,
                2.0890557765960693
            ],
            "min" : [
                -0.953048050403595,
                0.18806752562522888,
                -0.5340670943260193
            ],
            "type" : "VEC3"
        },
        {
            "bufferView" : 14,
            "componentType" : 5126,
            "count" : 6,
            "type" : "VEC3"
        },
        {
            "bufferView" : 15,
            "componentType" : 5126,
            "count" : 6,
            "type" : "VEC2"
        },
        {
            "bufferView" : 16,
            "componentType" : 5123,
            "count" : 6,
            "type" : "SCALAR"
        },
        {
            "bufferView" : 17,
            "componentType" : 5126,
            "count" : 6,
            "max" : [
                1.069674015045166,
                0.2193102389574051,
                2.0847864151000977
            ],
            "min" : [
                -0.8406727910041809,
                0.2193102389574051,
                -0.6666017770767212
            ],
            "type" : "VEC3"
        },
        {
            "bufferView" : 18,
            "componentType" : 5126,
            "count" : 6,
            "type" : "VEC3"
        },
        {
            "bufferView" : 19,
            "componentType" : 5126,
            "count" : 6,
            "type" : "VEC2"
        },
        {
            "bufferView" : 20,
            "componentType" : 5126,
            "count" : 6,
            "max" : [
                0.7580490112304688,
                0.24065011739730835,
                2.412527322769165
            ],
            "min" : [
                -0.9979754090309143,
                0.24065011739730835,
                -0.2520638704299927
            ],
            "type" : "VEC3"
        },
        {
            "bufferView" : 21,
            "componentType" : 5126,
            "count" : 6,
            "type" : "VEC3"
        },
        {
            "bufferView" : 22,
            "componentType" : 5126,
            "count" : 6,
            "type" : "VEC2"
        },
        {
            "bufferView" : 23,
            "componentType" : 5126,
            "count" : 4344,
            "max" : [
                2.310879945755005,
                1.0221397876739502,
                0.8162708878517151
            ],
            "min" : [
                0.4776689410209656,
                0.17256440222263336,
                -2.122281074523926
            ],
            "type" : "VEC3"
        },
        {
            "bufferView" : 24,
            "componentType" : 5126,
            "count" : 4344,
            "type" : "VEC3"
        },
        {
            "bufferView" : 25,
            "componentType" : 5126,
            "count" : 4344,
            "type" : "VEC2"
        },
        {
            "bufferView" : 26,
            "componentType" : 5123,
            "count" : 6156,
            "type" : "SCALAR"
        },
        {
            "bufferView" : 27,
            "componentType" : 5126,
            "count" : 72,
            "max" : [
                -1.2281432151794434,
                0.31927087903022766,
                1.8719160556793213
            ],
            "min" : [
                -1.3745670318603516,
                0.17284700274467468,
                0.9524070620536804
            ],
            "type" : "VEC3"
        },
        {
            "bufferView" : 28,
            "componentType" : 5126,
            "count" : 72,
            "type" : "VEC3"
        },
        {
            "bufferView" : 29,
            "componentType" : 5126,
            "count" : 72,
            "type" : "VEC2"
        },
        {
            "bufferView" : 30,
            "componentType" : 5123,
            "count" : 108,
            "type" : "SCALAR"
        },
        {
            "bufferView" : 31,
            "componentType" : 5126,
            "count" : 64,
            "max" : [
                -1.2095866203308105,
                0.33782750368118286,
                0.9524070620536804
            ],
            "min" : [
                -1.3931236267089844,
                0.15429042279720306,
                0.41879379749298096
            ],
            "type" : "VEC3"
        },
        {
            "bufferView" : 32,
            "componentType" : 5126,
            "count" : 64,
            "type" : "VEC3"
        },
        {
            "bufferView" : 33,
            "componentType" : 5126,
            "count" : 64,
            "type" : "VEC2"
        },
        {
            "bufferView" : 34,
            "componentType" : 5123,
            "count" : 96,
            "type" : "SCALAR"
        },
        {
            "bufferView" : 35,
            "componentType" : 5126,
            "count" : 186,
            "max" : [
                -1.2331441640853882,
                0.3142699897289276,
                2.0140151977539062
            ],
            "min" : [
                -1.4114855527877808,
                0.17784784734249115,
                0.15573160350322723
            ],
            "type" : "VEC3"
        },
        {
            "bufferView" : 36,
            "componentType" : 5126,
            "count" : 186,
            "type" : "VEC3"
        },
        {
            "bufferView" : 37,
            "componentType" : 5126,
            "count" : 186,
            "type" : "VEC2"
        },
        {
            "bufferView" : 38,
            "componentType" : 5123,
            "count" : 252,
            "type" : "SCALAR"
        }
    ],
    "bufferViews" : [
        {
            "buffer" : 0,
            "byteLength" : 10608,
            "byteOffset" : 0
        },
        {
            "buffer" : 0,
            "byteLength" : 10608,
            "byteOffset" : 10608
        },
        {
            "buffer" : 0,
            "byteLength" : 7072,
            "byteOffset" : 21216
        },
        {
            "buffer" : 0,
            "byteLength" : 2508,
            "byteOffset" : 28288
        },
        {
            "buffer" : 0,
            "byteLength" : 289570,
            "byteOffset" : 30796
        },
        {
            "buffer" : 0,
            "byteLength" : 1008,
            "byteOffset" : 320368
        },
        {
            "buffer" : 0,
            "byteLength" : 1008,
            "byteOffset" : 321376
        },
        {
            "buffer" : 0,
            "byteLength" : 672,
            "byteOffset" : 322384
        },
        {
            "buffer" : 0,
            "byteLength" : 348,
            "byteOffset" : 323056
        },
        {
            "buffer" : 0,
            "byteLength" : 73824,
            "byteOffset" : 323404
        },
        {
            "buffer" : 0,
            "byteLength" : 73824,
            "byteOffset" : 397228
        },
        {
            "buffer" : 0,
            "byteLength" : 49216,
            "byteOffset" : 471052
        },
        {
            "buffer" : 0,
            "byteLength" : 17472,
            "byteOffset" : 520268
        },
        {
            "buffer" : 0,
            "byteLength" : 72,
            "byteOffset" : 537740
        },
        {
            "buffer" : 0,
            "byteLength" : 72,
            "byteOffset" : 537812
        },
        {
            "buffer" : 0,
            "byteLength" : 48,
            "byteOffset" : 537884
        },
        {
            "buffer" : 0,
            "byteLength" : 12,
            "byteOffset" : 537932
        },
        {
            "buffer" : 0,
            "byteLength" : 72,
            "byteOffset" : 537944
        },
        {
            "buffer" : 0,
            "byteLength" : 72,
            "byteOffset" : 538016
        },
        {
            "buffer" : 0,
            "byteLength" : 48,
            "byteOffset" : 538088
        },
        {
            "buffer" : 0,
            "byteLength" : 72,
            "byteOffset" : 538136
        },
        {
            "buffer" : 0,
            "byteLength" : 72,
            "byteOffset" : 538208
        },
        {
            "buffer" : 0,
            "byteLength" : 48,
            "byteOffset" : 538280
        },
        {
            "buffer" : 0,
            "byteLength" : 52128,
            "byteOffset" : 538328
        },
        {
            "buffer" : 0,
            "byteLength" : 52128,
            "byteOffset" : 590456
        },
        {
            "buffer" : 0,
            "byteLength" : 34752,
            "byteOffset" : 642584
        },
        {
            "buffer" : 0,
            "byteLength" : 12312,
            "byteOffset" : 677336
        },
        {
            "buffer" : 0,
            "byteLength" : 864,
            "byteOffset" : 689648
        },
        {
            "buffer" : 0,
            "byteLength" : 864,
            "byteOffset" : 690512
        },
        {
            "buffer" : 0,
            "byteLength" : 576,
            "byteOffset" : 691376
        },
        {
            "buffer" : 0,
            "byteLength" : 216,
            "byteOffset" : 691952
        },
        {
            "buffer" : 0,
            "byteLength" : 768,
            "byteOffset" : 692168
        },
        {
            "buffer" : 0,
            "byteLength" : 768,
            "byteOffset" : 692936
        },
        {
            "buffer" : 0,
            "byteLength" : 512,
            "byteOffset" : 693704
        },
        {
            "buffer" : 0,
            "byteLength" : 192,
            "byteOffset" : 694216
        },
        {
            "buffer" : 0,
            "byteLength" : 2232,
            "byteOffset" : 694408
        },
        {
            "buffer" : 0,
            "byteLength" : 2232,
            "byteOffset" : 696640
        },
        {
            "buffer" : 0,
            "byteLength" : 1488,
            "byteOffset" : 698872
        },
        {
            "buffer" : 0,
            "byteLength" : 504,
            "byteOffset" : 700360
        }
    ],
    "buffers" : [
        {
            "byteLength" : 700864,
            "uri" : "data:application/octet-stream;base64,"
        }
    ]
}
