{
    "asset" : {
        "generator" : "Khronos glTF Blender I/O v1.2.75",
        "version" : "2.0"
    },
    "scene" : 0,
    "scenes" : [
        {
            "name" : "Scene",
            "nodes" : [
                0
            ]
        }
    ],
    "nodes" : [
        {
            "mesh" : 0,
            "name" : "Cube.007"
        }
    ],
    "materials" : [
        {
            "doubleSided" : true,
            "emissiveFactor" : [
                0,
                0,
                0
            ],
            "name" : "Base.005",
            "occlusionTexture" : {
                "index" : 0,
                "texCoord" : 0
            },
            "pbrMetallicRoughness" : {
                "baseColorFactor" : [
                    0.800000011920929,
                    0.800000011920929,
                    0.800000011920929,
                    1
                ],
                "metallicFactor" : 0,
                "roughnessFactor" : 0.5
            }
        },
        {
            "doubleSided" : true,
            "emissiveFactor" : [
                0,
                0,
                0
            ],
            "name" : "Ground.005",
            "occlusionTexture" : {
                "index" : 1,
                "texCoord" : 0
            },
            "pbrMetallicRoughness" : {
                "baseColorFactor" : [
                    0.052331726998090744,
                    0.04210943728685379,
                    0.057802680879831314,
                    1
                ],
                "metallicFactor" : 0,
                "roughnessFactor" : 0.5799999833106995
            }
        },
        {
            "doubleSided" : true,
            "emissiveFactor" : [
                0,
                0,
                0
            ],
            "name" : "grey_color",
            "occlusionTexture" : {
                "index" : 2,
                "texCoord" : 0
            },
            "pbrMetallicRoughness" : {
                "baseColorFactor" : [
                    0.33432409167289734,
                    0.33432409167289734,
                    0.33432409167289734,
                    1
                ],
                "metallicFactor" : 0.5333333611488342,
                "roughnessFactor" : 1
            }
        },
        {
            "doubleSided" : true,
            "emissiveFactor" : [
                0,
                0,
                0
            ],
            "name" : "lens.001",
            "occlusionTexture" : {
                "index" : 3,
                "texCoord" : 0
            },
            "pbrMetallicRoughness" : {
                "baseColorFactor" : [
                    0.021979346871376038,
                    0.011487782001495361,
                    0.021353214979171753,
                    1
                ],
                "metallicFactor" : 0,
                "roughnessFactor" : 0
            }
        },
        {
            "doubleSided" : true,
            "emissiveFactor" : [
                0,
                0,
                0
            ],
            "name" : "black",
            "occlusionTexture" : {
                "index" : 4,
                "texCoord" : 0
            },
            "pbrMetallicRoughness" : {
                "baseColorFactor" : [
                    0.02909955009818077,
                    0.02909955009818077,
                    0.02909955009818077,
                    1
                ],
                "metallicFactor" : 0,
                "roughnessFactor" : 0.5
            }
        },
        {
            "doubleSided" : true,
            "emissiveFactor" : [
                0,
                0,
                0
            ],
            "name" : "blue_color.001",
            "occlusionTexture" : {
                "index" : 5,
                "texCoord" : 0
            },
            "pbrMetallicRoughness" : {
                "baseColorFactor" : [
                    0.0015236630570143461,
                    0.2270069718360901,
                    0.8000000715255737,
                    1
                ],
                "metallicFactor" : 0.4272727370262146,
                "roughnessFactor" : 0.12727272510528564
            }
        },
        {
            "doubleSided" : true,
            "emissiveFactor" : [
                0,
                0,
                0
            ],
            "name" : "Metal",
            "occlusionTexture" : {
                "index" : 6,
                "texCoord" : 0
            },
            "pbrMetallicRoughness" : {
                "baseColorFactor" : [
                    0.6038163900375366,
                    0.6038163900375366,
                    0.6038163900375366,
                    1
                ],
                "metallicFactor" : 0.8083333373069763,
                "roughnessFactor" : 0.5333333015441895
            }
        },
        {
            "doubleSided" : true,
            "emissiveFactor" : [
                0,
                0,
                0
            ],
            "name" : "red_lights",
            "occlusionTexture" : {
                "index" : 7,
                "texCoord" : 0
            },
            "pbrMetallicRoughness" : {
                "baseColorFactor" : [
                    0.8000000715255737,
                    0.0034652454778552055,
                    0,
                    1
                ],
                "metallicFactor" : 0.24166667461395264,
                "roughnessFactor" : 0.30000001192092896
            }
        },
        {
            "doubleSided" : true,
            "emissiveFactor" : [
                0,
                0,
                0
            ],
            "name" : "white_lights",
            "occlusionTexture" : {
                "index" : 8,
                "texCoord" : 0
            },
            "pbrMetallicRoughness" : {
                "baseColorFactor" : [
                    0.800000011920929,
                    0.800000011920929,
                    0.800000011920929,
                    1
                ],
                "metallicFactor" : 0,
                "roughnessFactor" : 0.5
            }
        },
        {
            "doubleSided" : true,
            "emissiveFactor" : [
                0,
                0,
                0
            ],
            "name" : "green",
            "occlusionTexture" : {
                "index" : 9,
                "texCoord" : 0
            },
            "pbrMetallicRoughness" : {
                "baseColorFactor" : [
                    0.13236865401268005,
                    0.33432409167289734,
                    0.016998758539557457,
                    1
                ],
                "metallicFactor" : 0,
                "roughnessFactor" : 0.8333333730697632
            }
        }
    ],
    "meshes" : [
        {
            "name" : "Cube.013",
            "primitives" : [
                {
                    "attributes" : {
                        "POSITION" : 0,
                        "NORMAL" : 1,
                        "TEXCOORD_0" : 2
                    },
                    "indices" : 3,
                    "material" : 0
                },
                {
                    "attributes" : {
                        "POSITION" : 4,
                        "NORMAL" : 5,
                        "TEXCOORD_0" : 6
                    },
                    "indices" : 7,
                    "material" : 1
                },
                {
                    "attributes" : {
                        "POSITION" : 8,
                        "NORMAL" : 9,
                        "TEXCOORD_0" : 10
                    },
                    "indices" : 11,
                    "material" : 2
                },
                {
                    "attributes" : {
                        "POSITION" : 12,
                        "NORMAL" : 13,
                        "TEXCOORD_0" : 14
                    },
                    "indices" : 15,
                    "material" : 3
                },
                {
                    "attributes" : {
                        "POSITION" : 16,
                        "NORMAL" : 17,
                        "TEXCOORD_0" : 18
                    },
                    "indices" : 19,
                    "material" : 4
                },
                {
                    "attributes" : {
                        "POSITION" : 20,
                        "NORMAL" : 21,
                        "TEXCOORD_0" : 22
                    },
                    "indices" : 23,
                    "material" : 5
                },
                {
                    "attributes" : {
                        "POSITION" : 24,
                        "NORMAL" : 25,
                        "TEXCOORD_0" : 26
                    },
                    "indices" : 27,
                    "material" : 6
                },
                {
                    "attributes" : {
                        "POSITION" : 28,
                        "NORMAL" : 29,
                        "TEXCOORD_0" : 30
                    },
                    "indices" : 31,
                    "material" : 7
                },
                {
                    "attributes" : {
                        "POSITION" : 32,
                        "NORMAL" : 33,
                        "TEXCOORD_0" : 34
                    },
                    "indices" : 35,
                    "material" : 8
                },
                {
                    "attributes" : {
                        "POSITION" : 36,
                        "NORMAL" : 37,
                        "TEXCOORD_0" : 38
                    },
                    "indices" : 39,
                    "material" : 9
                }
            ]
        }
    ],
    "textures" : [
        {
            "source" : 0
        },
        {
            "source" : 0
        },
        {
            "source" : 0
        },
        {
            "source" : 0
        },
        {
            "source" : 0
        },
        {
            "source" : 0
        },
        {
            "source" : 0
        },
        {
            "source" : 0
        },
        {
            "source" : 0
        },
        {
            "source" : 0
        }
    ],
    "images" : [
        {
            "bufferView" : 4,
            "mimeType" : "image/jpeg",
            "name" : "AO"
        }
    ],
    "accessors" : [
        {
            "bufferView" : 0,
            "componentType" : 5126,
            "count" : 908,
            "max" : [
                3,
                0.30000007152557373,
                3
            ],
            "min" : [
                -3,
                0.005397699773311615,
                -3
            ],
            "type" : "VEC3"
        },
        {
            "bufferView" : 1,
            "componentType" : 5126,
            "count" : 908,
            "type" : "VEC3"
        },
        {
            "bufferView" : 2,
            "componentType" : 5126,
            "count" : 908,
            "type" : "VEC2"
        },
        {
            "bufferView" : 3,
            "componentType" : 5123,
            "count" : 1254,
            "type" : "SCALAR"
        },
        {
            "bufferView" : 5,
            "componentType" : 5126,
            "count" : 88,
            "max" : [
                2.7126035690307617,
                0.18153521418571472,
                2.7126035690307617
            ],
            "min" : [
                -2.7126035690307617,
                0.18153521418571472,
                -2.7126035690307617
            ],
            "type" : "VEC3"
        },
        {
            "bufferView" : 6,
            "componentType" : 5126,
            "count" : 88,
            "type" : "VEC3"
        },
        {
            "bufferView" : 7,
            "componentType" : 5126,
            "count" : 88,
            "type" : "VEC2"
        },
        {
            "bufferView" : 8,
            "componentType" : 5123,
            "count" : 174,
            "type" : "SCALAR"
        },
        {
            "bufferView" : 9,
            "componentType" : 5126,
            "count" : 2577,
            "max" : [
                1.7123247385025024,
                3.290640354156494,
                2.7707738876342773
            ],
            "min" : [
                -1.6597799062728882,
                0.15122085809707642,
                -2.7707738876342773
            ],
            "type" : "VEC3"
        },
        {
            "bufferView" : 10,
            "componentType" : 5126,
            "count" : 2577,
            "type" : "VEC3"
        },
        {
            "bufferView" : 11,
            "componentType" : 5126,
            "count" : 2577,
            "type" : "VEC2"
        },
        {
            "bufferView" : 12,
            "componentType" : 5123,
            "count" : 3426,
            "type" : "SCALAR"
        },
        {
            "bufferView" : 13,
            "componentType" : 5126,
            "count" : 288,
            "max" : [
                0.34946566820144653,
                2.9518280029296875,
                1.0019173622131348
            ],
            "min" : [
                0.0028462260961532593,
                2.605208396911621,
                0.9606426954269409
            ],
            "type" : "VEC3"
        },
        {
            "bufferView" : 14,
            "componentType" : 5126,
            "count" : 288,
            "type" : "VEC3"
        },
        {
            "bufferView" : 15,
            "componentType" : 5126,
            "count" : 288,
            "type" : "VEC2"
        },
        {
            "bufferView" : 16,
            "componentType" : 5123,
            "count" : 474,
            "type" : "SCALAR"
        },
        {
            "bufferView" : 17,
            "componentType" : 5126,
            "count" : 2490,
            "max" : [
                1.8495361804962158,
                3.0704047679901123,
                1.6044509410858154
            ],
            "min" : [
                -0.6724517345428467,
                0.13653293251991272,
                -1.74952232837677
            ],
            "type" : "VEC3"
        },
        {
            "bufferView" : 18,
            "componentType" : 5126,
            "count" : 2490,
            "type" : "VEC3"
        },
        {
            "bufferView" : 19,
            "componentType" : 5126,
            "count" : 2490,
            "type" : "VEC2"
        },
        {
            "bufferView" : 20,
            "componentType" : 5123,
            "count" : 3216,
            "type" : "SCALAR"
        },
        {
            "bufferView" : 21,
            "componentType" : 5126,
            "count" : 885,
            "max" : [
                1.595772385597229,
                3.3173093795776367,
                1.2274737358093262
            ],
            "min" : [
                -0.41868799924850464,
                0.7940040826797485,
                -0.999618649482727
            ],
            "type" : "VEC3"
        },
        {
            "bufferView" : 22,
            "componentType" : 5126,
            "count" : 885,
            "type" : "VEC3"
        },
        {
            "bufferView" : 23,
            "componentType" : 5126,
            "count" : 885,
            "type" : "VEC2"
        },
        {
            "bufferView" : 24,
            "componentType" : 5123,
            "count" : 1398,
            "type" : "SCALAR"
        },
        {
            "bufferView" : 25,
            "componentType" : 5126,
            "count" : 204,
            "max" : [
                -2.0471620559692383,
                1.5279264450073242,
                3
            ],
            "min" : [
                -2.304863929748535,
                0.19336089491844177,
                -3
            ],
            "type" : "VEC3"
        },
        {
            "bufferView" : 26,
            "componentType" : 5126,
            "count" : 204,
            "type" : "VEC3"
        },
        {
            "bufferView" : 27,
            "componentType" : 5126,
            "count" : 204,
            "type" : "VEC2"
        },
        {
            "bufferView" : 28,
            "componentType" : 5123,
            "count" : 300,
            "type" : "SCALAR"
        },
        {
            "bufferView" : 29,
            "componentType" : 5126,
            "count" : 44,
            "max" : [
                -2.0695416927337646,
                1.2219409942626953,
                2.3379030227661133
            ],
            "min" : [
                -2.1356515884399414,
                1.021888256072998,
                -2.3544323444366455
            ],
            "type" : "VEC3"
        },
        {
            "bufferView" : 30,
            "componentType" : 5126,
            "count" : 44,
            "type" : "VEC3"
        },
        {
            "bufferView" : 31,
            "componentType" : 5126,
            "count" : 44,
            "type" : "VEC2"
        },
        {
            "bufferView" : 32,
            "componentType" : 5123,
            "count" : 48,
            "type" : "SCALAR"
        },
        {
            "bufferView" : 33,
            "componentType" : 5126,
            "count" : 48,
            "max" : [
                -2.0695416927337646,
                1.2219409942626953,
                2.3379030227661133
            ],
            "min" : [
                -2.1356515884399414,
                1.021888256072998,
                -2.3544323444366455
            ],
            "type" : "VEC3"
        },
        {
            "bufferView" : 34,
            "componentType" : 5126,
            "count" : 48,
            "type" : "VEC3"
        },
        {
            "bufferView" : 35,
            "componentType" : 5126,
            "count" : 48,
            "type" : "VEC2"
        },
        {
            "bufferView" : 36,
            "componentType" : 5123,
            "count" : 48,
            "type" : "SCALAR"
        },
        {
            "bufferView" : 37,
            "componentType" : 5126,
            "count" : 70,
            "max" : [
                -1.611419677734375,
                0.25470536947250366,
                2.8700718879699707
            ],
            "min" : [
                -2.842660665512085,
                0.25470536947250366,
                -2.8700718879699707
            ],
            "type" : "VEC3"
        },
        {
            "bufferView" : 38,
            "componentType" : 5126,
            "count" : 70,
            "type" : "VEC3"
        },
        {
            "bufferView" : 39,
            "componentType" : 5126,
            "count" : 70,
            "type" : "VEC2"
        },
        {
            "bufferView" : 40,
            "componentType" : 5123,
            "count" : 72,
            "type" : "SCALAR"
        }
    ],
    "bufferViews" : [
        {
            "buffer" : 0,
            "byteLength" : 10896,
            "byteOffset" : 0
        },
        {
            "buffer" : 0,
            "byteLength" : 10896,
            "byteOffset" : 10896
        },
        {
            "buffer" : 0,
            "byteLength" : 7264,
            "byteOffset" : 21792
        },
        {
            "buffer" : 0,
            "byteLength" : 2508,
            "byteOffset" : 29056
        },
        {
            "buffer" : 0,
            "byteLength" : 413491,
            "byteOffset" : 31564
        },
        {
            "buffer" : 0,
            "byteLength" : 1056,
            "byteOffset" : 445056
        },
        {
            "buffer" : 0,
            "byteLength" : 1056,
            "byteOffset" : 446112
        },
        {
            "buffer" : 0,
            "byteLength" : 704,
            "byteOffset" : 447168
        },
        {
            "buffer" : 0,
            "byteLength" : 348,
            "byteOffset" : 447872
        },
        {
            "buffer" : 0,
            "byteLength" : 30924,
            "byteOffset" : 448220
        },
        {
            "buffer" : 0,
            "byteLength" : 30924,
            "byteOffset" : 479144
        },
        {
            "buffer" : 0,
            "byteLength" : 20616,
            "byteOffset" : 510068
        },
        {
            "buffer" : 0,
            "byteLength" : 6852,
            "byteOffset" : 530684
        },
        {
            "buffer" : 0,
            "byteLength" : 3456,
            "byteOffset" : 537536
        },
        {
            "buffer" : 0,
            "byteLength" : 3456,
            "byteOffset" : 540992
        },
        {
            "buffer" : 0,
            "byteLength" : 2304,
            "byteOffset" : 544448
        },
        {
            "buffer" : 0,
            "byteLength" : 948,
            "byteOffset" : 546752
        },
        {
            "buffer" : 0,
            "byteLength" : 29880,
            "byteOffset" : 547700
        },
        {
            "buffer" : 0,
            "byteLength" : 29880,
            "byteOffset" : 577580
        },
        {
            "buffer" : 0,
            "byteLength" : 19920,
            "byteOffset" : 607460
        },
        {
            "buffer" : 0,
            "byteLength" : 6432,
            "byteOffset" : 627380
        },
        {
            "buffer" : 0,
            "byteLength" : 10620,
            "byteOffset" : 633812
        },
        {
            "buffer" : 0,
            "byteLength" : 10620,
            "byteOffset" : 644432
        },
        {
            "buffer" : 0,
            "byteLength" : 7080,
            "byteOffset" : 655052
        },
        {
            "buffer" : 0,
            "byteLength" : 2796,
            "byteOffset" : 662132
        },
        {
            "buffer" : 0,
            "byteLength" : 2448,
            "byteOffset" : 664928
        },
        {
            "buffer" : 0,
            "byteLength" : 2448,
            "byteOffset" : 667376
        },
        {
            "buffer" : 0,
            "byteLength" : 1632,
            "byteOffset" : 669824
        },
        {
            "buffer" : 0,
            "byteLength" : 600,
            "byteOffset" : 671456
        },
        {
            "buffer" : 0,
            "byteLength" : 528,
            "byteOffset" : 672056
        },
        {
            "buffer" : 0,
            "byteLength" : 528,
            "byteOffset" : 672584
        },
        {
            "buffer" : 0,
            "byteLength" : 352,
            "byteOffset" : 673112
        },
        {
            "buffer" : 0,
            "byteLength" : 96,
            "byteOffset" : 673464
        },
        {
            "buffer" : 0,
            "byteLength" : 576,
            "byteOffset" : 673560
        },
        {
            "buffer" : 0,
            "byteLength" : 576,
            "byteOffset" : 674136
        },
        {
            "buffer" : 0,
            "byteLength" : 384,
            "byteOffset" : 674712
        },
        {
            "buffer" : 0,
            "byteLength" : 96,
            "byteOffset" : 675096
        },
        {
            "buffer" : 0,
            "byteLength" : 840,
            "byteOffset" : 675192
        },
        {
            "buffer" : 0,
            "byteLength" : 840,
            "byteOffset" : 676032
        },
        {
            "buffer" : 0,
            "byteLength" : 560,
            "byteOffset" : 676872
        },
        {
            "buffer" : 0,
            "byteLength" : 144,
            "byteOffset" : 677432
        }
    ],
    "buffers" : [
        {
            "byteLength" : 677576,
            "uri" : "data:application/octet-stream;base64,"
        }
    ]
}
